<mxfile host="Electron" agent="Mozilla/5.0 (Macintosh; Intel Mac OS X 10_15_7) AppleWebKit/537.36 (KHTML, like Gecko) draw.io/28.2.5 Chrome/138.0.7204.251 Electron/37.6.1 Safari/537.36" version="28.2.5">
  <diagram name="Page-1" id="XdhDr68VNy24cAKsDTmV">
    <mxGraphModel dx="472" dy="379" grid="1" gridSize="10" guides="1" tooltips="1" connect="1" arrows="1" fold="1" page="1" pageScale="1" pageWidth="850" pageHeight="1100" math="0" shadow="0">
      <root>
        <mxCell id="0" />
        <mxCell id="1" parent="0" />
        <mxCell id="slSxzJuQmgtSLEaE1l4P-1" value="demux(X,n)" style="ellipse;whiteSpace=wrap;html=1;" vertex="1" parent="1">
          <mxGeometry x="150" y="380" width="70" height="150" as="geometry" />
        </mxCell>
        <mxCell id="slSxzJuQmgtSLEaE1l4P-2" value="" style="endArrow=none;html=1;rounded=0;entryX=0.023;entryY=0.268;entryDx=0;entryDy=0;entryPerimeter=0;" edge="1" parent="1" target="slSxzJuQmgtSLEaE1l4P-1">
          <mxGeometry width="50" height="50" relative="1" as="geometry">
            <mxPoint x="100" y="420" as="sourcePoint" />
            <mxPoint x="150" y="460" as="targetPoint" />
          </mxGeometry>
        </mxCell>
        <mxCell id="slSxzJuQmgtSLEaE1l4P-3" value="X" style="edgeLabel;html=1;align=center;verticalAlign=bottom;resizable=0;points=[];labelPosition=center;verticalLabelPosition=top;" vertex="1" connectable="0" parent="slSxzJuQmgtSLEaE1l4P-2">
          <mxGeometry x="0.2248" y="-2" relative="1" as="geometry">
            <mxPoint y="-2" as="offset" />
          </mxGeometry>
        </mxCell>
        <mxCell id="slSxzJuQmgtSLEaE1l4P-4" value="" style="endArrow=none;html=1;rounded=0;entryX=0;entryY=0.6;entryDx=0;entryDy=0;entryPerimeter=0;" edge="1" parent="1" target="slSxzJuQmgtSLEaE1l4P-1">
          <mxGeometry width="50" height="50" relative="1" as="geometry">
            <mxPoint x="100" y="470" as="sourcePoint" />
            <mxPoint x="150" y="320" as="targetPoint" />
          </mxGeometry>
        </mxCell>
        <mxCell id="slSxzJuQmgtSLEaE1l4P-5" value="&lt;b&gt;n + 1&lt;/b&gt;" style="edgeLabel;html=1;align=center;verticalAlign=bottom;resizable=0;points=[];labelPosition=center;verticalLabelPosition=top;" vertex="1" connectable="0" parent="slSxzJuQmgtSLEaE1l4P-4">
          <mxGeometry x="0.184" y="1" relative="1" as="geometry">
            <mxPoint as="offset" />
          </mxGeometry>
        </mxCell>
        <mxCell id="slSxzJuQmgtSLEaE1l4P-7" value="" style="endArrow=none;html=1;rounded=0;exitX=1;exitY=0.267;exitDx=0;exitDy=0;exitPerimeter=0;" edge="1" parent="1" source="slSxzJuQmgtSLEaE1l4P-1">
          <mxGeometry width="50" height="50" relative="1" as="geometry">
            <mxPoint x="220" y="420" as="sourcePoint" />
            <mxPoint x="270" y="420" as="targetPoint" />
          </mxGeometry>
        </mxCell>
        <mxCell id="slSxzJuQmgtSLEaE1l4P-8" value="1 + X" style="edgeLabel;html=1;align=center;verticalAlign=bottom;resizable=0;points=[];labelPosition=center;verticalLabelPosition=top;" vertex="1" connectable="0" parent="slSxzJuQmgtSLEaE1l4P-7">
          <mxGeometry relative="1" as="geometry">
            <mxPoint as="offset" />
          </mxGeometry>
        </mxCell>
        <mxCell id="slSxzJuQmgtSLEaE1l4P-9" value="" style="endArrow=none;html=1;rounded=0;exitX=1.02;exitY=0.603;exitDx=0;exitDy=0;exitPerimeter=0;" edge="1" parent="1" source="slSxzJuQmgtSLEaE1l4P-1">
          <mxGeometry width="50" height="50" relative="1" as="geometry">
            <mxPoint x="240" y="410" as="sourcePoint" />
            <mxPoint x="270" y="470" as="targetPoint" />
          </mxGeometry>
        </mxCell>
        <mxCell id="slSxzJuQmgtSLEaE1l4P-10" value="1 + X" style="edgeLabel;html=1;align=center;verticalAlign=top;resizable=0;points=[];labelPosition=center;verticalLabelPosition=bottom;" vertex="1" connectable="0" parent="slSxzJuQmgtSLEaE1l4P-9">
          <mxGeometry x="-0.012" y="1" relative="1" as="geometry">
            <mxPoint as="offset" />
          </mxGeometry>
        </mxCell>
        <mxCell id="slSxzJuQmgtSLEaE1l4P-11" value="" style="endArrow=none;dashed=1;html=1;dashPattern=1 3;strokeWidth=2;rounded=0;" edge="1" parent="1">
          <mxGeometry width="50" height="50" relative="1" as="geometry">
            <mxPoint x="240" y="420" as="sourcePoint" />
            <mxPoint x="240" y="470" as="targetPoint" />
          </mxGeometry>
        </mxCell>
        <mxCell id="slSxzJuQmgtSLEaE1l4P-12" value="&amp;nbsp;n" style="edgeLabel;html=1;align=left;verticalAlign=middle;resizable=0;points=[];labelPosition=right;verticalLabelPosition=middle;" vertex="1" connectable="0" parent="slSxzJuQmgtSLEaE1l4P-11">
          <mxGeometry x="0.104" y="-1" relative="1" as="geometry">
            <mxPoint as="offset" />
          </mxGeometry>
        </mxCell>
      </root>
    </mxGraphModel>
  </diagram>
</mxfile>
